<?xml version="1.0" encoding="UTF-8"?>
<svg xmlns="http://www.w3.org/2000/svg" width="1400" height="760" viewBox="0 0 1400 760">
<defs>
  <filter id="s" x="-20%" y="-20%" width="140%" height="140%"><feDropShadow dx="0" dy="4" stdDeviation="6" flood-opacity=".16"/></filter>
  <marker id="a" markerWidth="10" markerHeight="10" refX="8" refY="5" orient="auto"><path d="M0,0 L10,5 L0,10 z" fill="#334155"/></marker>
</defs>
<rect width="1400" height="760" fill="#f8fafc"/>
<rect x="40" y="30" width="1320" height="700" rx="26" fill="white" stroke="#cbd5e1"/>
<text x="80" y="88" font-family="Arial, sans-serif" font-size="38" font-weight="700" fill="#0f172a">FlowOE Execution — System Architecture</text>
<text x="80" y="124" font-family="Arial, sans-serif" font-size="18" fill="#475569">Project layer over the retained CFM, TorchDyn and TensorRT upstream trees</text>

<g filter="url(#s)">
<rect x="60" y="180" width="210" height="270" rx="18" fill="#ffffff" stroke="#94a3b8"/>
<rect x="60" y="180" width="210" height="56" rx="18" fill="#e2e8f0"/>
<text x="165" y="216" text-anchor="middle" font-family="Arial" font-size="18" font-weight="700" fill="#0f172a">Market Data</text>
<rect x="78" y="258" width="174" height="74" rx="12" fill="#f8fafc" stroke="#cbd5e1"/>
<text x="165" y="284" text-anchor="middle" font-family="Arial" font-size="14" fill="#0f172a"><tspan x="165" dy="0">FI-2010</tspan><tspan x="165" dy="20">144 features + 5 labels</tspan></text>
<rect x="78" y="348" width="174" height="74" rx="12" fill="#f8fafc" stroke="#cbd5e1"/>
<text x="165" y="374" text-anchor="middle" font-family="Arial" font-size="14" fill="#0f172a"><tspan x="165" dy="0">Crypto L2</tspan><tspan x="165" dy="20">Top-10 book + trades</tspan></text>
</g><g filter="url(#s)">
<rect x="330" y="180" width="210" height="270" rx="18" fill="#ffffff" stroke="#94a3b8"/>
<rect x="330" y="180" width="210" height="56" rx="18" fill="#e2e8f0"/>
<text x="435" y="216" text-anchor="middle" font-family="Arial" font-size="18" font-weight="700" fill="#0f172a">Temporal Encoding</text>
<rect x="348" y="258" width="174" height="74" rx="12" fill="#f8fafc" stroke="#cbd5e1"/>
<text x="435" y="284" text-anchor="middle" font-family="Arial" font-size="14" fill="#0f172a"><tspan x="435" dy="0">FI projection 144 → hidden</tspan><tspan x="435" dy="20">Crypto projection 45 → hidden</tspan></text>

</g><g filter="url(#s)">
<rect x="600" y="180" width="210" height="270" rx="18" fill="#ffffff" stroke="#94a3b8"/>
<rect x="600" y="180" width="210" height="56" rx="18" fill="#e2e8f0"/>
<text x="705" y="216" text-anchor="middle" font-family="Arial" font-size="18" font-weight="700" fill="#0f172a">Generative Policy</text>
<rect x="618" y="258" width="174" height="74" rx="12" fill="#f8fafc" stroke="#cbd5e1"/>
<text x="705" y="284" text-anchor="middle" font-family="Arial" font-size="14" fill="#0f172a"><tspan x="705" dy="0">CFM vector field</tspan><tspan x="705" dy="20">RK4 sampling</tspan></text>
<rect x="618" y="348" width="174" height="74" rx="12" fill="#f8fafc" stroke="#cbd5e1"/>
<text x="705" y="374" text-anchor="middle" font-family="Arial" font-size="14" fill="#0f172a"><tspan x="705" dy="0">Probability-flow ODE</tspan><tspan x="705" dy="20">VP score + reverse ODE</tspan></text>
</g><g filter="url(#s)">
<rect x="870" y="180" width="210" height="270" rx="18" fill="#ffffff" stroke="#94a3b8"/>
<rect x="870" y="180" width="210" height="56" rx="18" fill="#e2e8f0"/>
<text x="975" y="216" text-anchor="middle" font-family="Arial" font-size="18" font-weight="700" fill="#0f172a">Execution Replay</text>
<rect x="888" y="258" width="174" height="74" rx="12" fill="#f8fafc" stroke="#cbd5e1"/>
<text x="975" y="284" text-anchor="middle" font-family="Arial" font-size="14" fill="#0f172a"><tspan x="975" dy="0">Trajectory → softmax schedule</tspan><tspan x="975" dy="20">Full top-10 depth consumption</tspan></text>
<rect x="888" y="348" width="174" height="74" rx="12" fill="#f8fafc" stroke="#cbd5e1"/>
<text x="975" y="374" text-anchor="middle" font-family="Arial" font-size="14" fill="#0f172a"><tspan x="975" dy="0">VWAP / completion</tspan><tspan x="975" dy="20">Mean / median / p95 / CI</tspan></text>
</g><g filter="url(#s)">
<rect x="1140" y="180" width="210" height="270" rx="18" fill="#ffffff" stroke="#94a3b8"/>
<rect x="1140" y="180" width="210" height="56" rx="18" fill="#e2e8f0"/>
<text x="1245" y="216" text-anchor="middle" font-family="Arial" font-size="18" font-weight="700" fill="#0f172a">Acceleration</text>
<rect x="1158" y="258" width="174" height="74" rx="12" fill="#f8fafc" stroke="#cbd5e1"/>
<text x="1245" y="284" text-anchor="middle" font-family="Arial" font-size="14" fill="#0f172a"><tspan x="1245" dy="0">Fixed-step sampler</tspan><tspan x="1245" dy="20">INT8 TensorRT</tspan></text>
<rect x="1158" y="348" width="174" height="74" rx="12" fill="#f8fafc" stroke="#cbd5e1"/>
<text x="1245" y="374" text-anchor="middle" font-family="Arial" font-size="14" fill="#0f172a"><tspan x="1245" dy="0">Fused CUDA Euler update</tspan><tspan x="1245" dy="20"></tspan></text>
</g>
<line x1="270" y1="315" x2="252" y2="315" stroke="#334155" stroke-width="4" marker-end="url(#a)"/><line x1="540" y1="315" x2="522" y2="315" stroke="#334155" stroke-width="4" marker-end="url(#a)"/><line x1="810" y1="315" x2="792" y2="315" stroke="#334155" stroke-width="4" marker-end="url(#a)"/><line x1="1080" y1="315" x2="1062" y2="315" stroke="#334155" stroke-width="4" marker-end="url(#a)"/>

<rect x="80" y="500" width="1240" height="170" rx="18" fill="#f1f5f9" stroke="#cbd5e1"/>
<text x="110" y="540" font-family="Arial" font-size="22" font-weight="700" fill="#0f172a">Evidence contract</text>
<text x="110" y="576" font-family="Arial" font-size="17" fill="#334155">Chronological split → train only on past data → generate schedules without future observations →</text>
<text x="110" y="604" font-family="Arial" font-size="17" fill="#334155">replay against full L2 depth → benchmark against matching trade-VWAP → report uncertainty and completion.</text>
<text x="110" y="640" font-family="Arial" font-size="17" fill="#334155">GPU performance is reported only after a real CUDA/TensorRT run records p50/p95/p99, error and environment.</text>
</svg>