<?xml version="1.0" encoding="UTF-8"?>
<svg xmlns="http://www.w3.org/2000/svg" width="1100" height="700" viewBox="0 0 1100 700">
<rect width="1100" height="700" fill="#f8fafc"/>
<rect x="40" y="30" width="1020" height="640" rx="24" fill="white" stroke="#cbd5e1"/>
<text x="80" y="85" font-family="Arial" font-size="34" font-weight="700" fill="#0f172a">Synthetic Smoke Regression Snapshot</text>
<text x="80" y="119" font-family="Arial" font-size="17" fill="#64748b">Captured offline regression only — not FI-2010, not real crypto L2, not GPU/TensorRT evidence.</text>
<line x1="100" y1="560" x2="700" y2="560" stroke="#64748b" stroke-width="2"/>
<line x1="100" y1="190" x2="100" y2="560" stroke="#64748b" stroke-width="2"/>
<line x1="100" y1="560" x2="700" y2="560" stroke="#e2e8f0"/><text x="85" y="566" text-anchor="end" font-family="Arial" font-size="14" fill="#64748b">0.0</text><line x1="100" y1="445" x2="700" y2="445" stroke="#e2e8f0"/><text x="85" y="451" text-anchor="end" font-family="Arial" font-size="14" fill="#64748b">0.5</text><line x1="100" y1="330" x2="700" y2="330" stroke="#e2e8f0"/><text x="85" y="336" text-anchor="end" font-family="Arial" font-size="14" fill="#64748b">1.0</text><line x1="100" y1="215" x2="700" y2="215" stroke="#e2e8f0"/><text x="85" y="221" text-anchor="end" font-family="Arial" font-size="14" fill="#64748b">1.5</text>
<text x="34" y="375" transform="rotate(-90 34 375)" font-family="Arial" font-size="16" fill="#475569">Slippage (bps)</text>
<rect x="200" y="267" width="150" height="293" rx="8" fill="#64748b"/>
<rect x="430" y="267.4" width="150" height="292.6" rx="8" fill="#0f766e"/>
<text x="275" y="245" text-anchor="middle" font-family="Arial" font-size="22" font-weight="700" fill="#0f172a">1.2766</text>
<text x="505" y="245" text-anchor="middle" font-family="Arial" font-size="22" font-weight="700" fill="#0f172a">1.2751</text>
<text x="275" y="598" text-anchor="middle" font-family="Arial" font-size="19" font-weight="700" fill="#0f172a">TWAP</text>
<text x="505" y="598" text-anchor="middle" font-family="Arial" font-size="19" font-weight="700" fill="#0f172a">FlowOE</text>
<rect x="760" y="190" width="260" height="190" rx="16" fill="#f8fafc" stroke="#cbd5e1"/>
<text x="785" y="230" font-family="Arial" font-size="20" font-weight="700" fill="#0f172a">Observed smoke delta</text>
<text x="785" y="275" font-family="Arial" font-size="36" font-weight="700" fill="#0f766e">0.0015 bps</text>
<text x="785" y="310" font-family="Arial" font-size="16" fill="#475569">TWAP − FlowOE</text>
<text x="785" y="350" font-family="Arial" font-size="16" fill="#475569">This value is a regression snapshot,</text>
<text x="785" y="372" font-family="Arial" font-size="16" fill="#475569">not the resume's 2.4 bps claim.</text>
<rect x="760" y="410" width="260" height="150" rx="16" fill="#f8fafc" stroke="#cbd5e1"/>
<text x="785" y="448" font-family="Arial" font-size="20" font-weight="700" fill="#0f172a">CPU latency smoke</text>
<text x="785" y="492" font-family="Arial" font-size="34" font-weight="700" fill="#0f172a">3.637 ms</text>
<text x="785" y="525" font-family="Arial" font-size="15" fill="#475569">p99 @ 16 ODE steps</text>
<text x="785" y="547" font-family="Arial" font-size="15" fill="#475569">No CUDA acceleration.</text>
</svg>